<svg width="113" height="99" viewBox="0 0 113 99" fill="none" xmlns="http://www.w3.org/2000/svg">
<path d="M25.8434 13.9631L20.8576 14.2699C20.7724 13.8437 20.5891 13.4602 20.3079 13.1193C20.0266 12.7699 19.6559 12.4929 19.1957 12.2884C18.744 12.0753 18.2028 11.9688 17.5721 11.9688C16.7283 11.9688 16.0167 12.1477 15.4371 12.5057C14.8576 12.8551 14.5678 13.3239 14.5678 13.9119C14.5678 14.3807 14.7553 14.777 15.1303 15.1009C15.5053 15.4247 16.1488 15.6847 17.0607 15.8807L20.6147 16.5966C22.5238 16.9886 23.9471 17.6193 24.8846 18.4886C25.8221 19.358 26.2908 20.5 26.2908 21.9148C26.2908 23.2017 25.9116 24.331 25.1531 25.3026C24.4031 26.2741 23.3718 27.0327 22.0593 27.5781C20.7553 28.1151 19.2511 28.3835 17.5465 28.3835C14.9471 28.3835 12.8761 27.8423 11.3335 26.7599C9.79936 25.669 8.90021 24.1861 8.63601 22.3111L13.9925 22.0298C14.1545 22.8224 14.5465 23.4276 15.1687 23.8452C15.7908 24.2543 16.5877 24.4588 17.5593 24.4588C18.5138 24.4588 19.2809 24.2756 19.8604 23.9091C20.4485 23.5341 20.7468 23.0526 20.7553 22.4645C20.7468 21.9702 20.538 21.5653 20.1289 21.25C19.7198 20.9261 19.0891 20.679 18.2369 20.5085L14.8363 19.831C12.9187 19.4474 11.4911 18.7827 10.5536 17.8366C9.62464 16.8906 9.16016 15.6847 9.16016 14.2188C9.16016 12.9574 9.50107 11.8707 10.1829 10.9588C10.8732 10.0469 11.8406 9.34375 13.0849 8.84943C14.3377 8.35511 15.8036 8.10795 17.4826 8.10795C19.9627 8.10795 21.9144 8.6321 23.3377 9.6804C24.7695 10.7287 25.6048 12.1562 25.8434 13.9631ZM29.7202 28V8.36364H35.1662V28H29.7202ZM32.456 5.83239C31.6463 5.83239 30.9517 5.56392 30.3722 5.02699C29.8011 4.48153 29.5156 3.82954 29.5156 3.07102C29.5156 2.32102 29.8011 1.67756 30.3722 1.14062C30.9517 0.59517 31.6463 0.322442 32.456 0.322442C33.2656 0.322442 33.956 0.59517 34.527 1.14062C35.1065 1.67756 35.3963 2.32102 35.3963 3.07102C35.3963 3.82954 35.1065 4.48153 34.527 5.02699C33.956 5.56392 33.2656 5.83239 32.456 5.83239ZM44.9748 16.6477V28H39.5288V8.36364H44.7191V11.8281H44.9492C45.3839 10.6861 46.1126 9.78267 47.1353 9.1179C48.158 8.4446 49.3981 8.10795 50.8555 8.10795C52.2191 8.10795 53.408 8.40625 54.4222 9.00284C55.4364 9.59943 56.2248 10.4517 56.7873 11.5597C57.3498 12.6591 57.631 13.9716 57.631 15.4972V28H52.185V16.4688C52.1935 15.267 51.8867 14.3295 51.2646 13.6562C50.6424 12.9744 49.7859 12.6335 48.695 12.6335C47.962 12.6335 47.3143 12.7912 46.7518 13.1065C46.1978 13.4219 45.7631 13.8821 45.4478 14.4872C45.141 15.0838 44.9833 15.804 44.9748 16.6477ZM70.7699 35.7727C69.0057 35.7727 67.4929 35.5298 66.2315 35.044C64.9787 34.5668 63.9815 33.9148 63.2401 33.0881C62.4986 32.2614 62.017 31.3324 61.7955 30.3011L66.8324 29.6236C66.9858 30.0156 67.2287 30.3821 67.5611 30.723C67.8935 31.0639 68.3324 31.3366 68.8778 31.5412C69.4318 31.7543 70.1051 31.8608 70.8977 31.8608C72.0824 31.8608 73.0582 31.571 73.8253 30.9915C74.6009 30.4205 74.9886 29.4616 74.9886 28.1151V24.5227H74.7585C74.5199 25.0682 74.1619 25.5838 73.6847 26.0696C73.2074 26.5554 72.5938 26.9517 71.8438 27.2585C71.0938 27.5653 70.1989 27.7188 69.1591 27.7188C67.6847 27.7188 66.3423 27.3778 65.1321 26.696C63.9304 26.0057 62.9716 24.9531 62.2557 23.5384C61.5483 22.1151 61.1946 20.3168 61.1946 18.1435C61.1946 15.919 61.5568 14.0611 62.2812 12.5696C63.0057 11.0781 63.9688 9.96165 65.1705 9.22017C66.3807 8.47869 67.706 8.10795 69.1463 8.10795C70.2457 8.10795 71.1662 8.29545 71.9077 8.67045C72.6491 9.03693 73.2457 9.49716 73.6974 10.0511C74.1577 10.5966 74.5114 11.1335 74.7585 11.6619H74.9631V8.36364H80.3707V28.1918C80.3707 29.8622 79.9616 31.2599 79.1435 32.3849C78.3253 33.5099 77.1918 34.3537 75.7429 34.9162C74.3026 35.4872 72.6449 35.7727 70.7699 35.7727ZM70.8849 23.6278C71.7628 23.6278 72.5043 23.4105 73.1094 22.9759C73.723 22.5327 74.1918 21.902 74.5156 21.0838C74.848 20.2571 75.0142 19.2685 75.0142 18.1179C75.0142 16.9673 74.8523 15.9702 74.5284 15.1264C74.2045 14.2741 73.7358 13.6136 73.1222 13.1449C72.5085 12.6761 71.7628 12.4418 70.8849 12.4418C69.9901 12.4418 69.2358 12.6847 68.6222 13.1705C68.0085 13.6477 67.544 14.3125 67.2287 15.1648C66.9134 16.017 66.7557 17.0014 66.7557 18.1179C66.7557 19.2514 66.9134 20.2315 67.2287 21.0582C67.5526 21.8764 68.017 22.5114 68.6222 22.9631C69.2358 23.4062 69.9901 23.6278 70.8849 23.6278ZM90.1506 1.81818V28H84.7045V1.81818H90.1506ZM103.462 28.3835C101.442 28.3835 99.7035 27.9744 98.2461 27.1562C96.7972 26.3295 95.6808 25.1619 94.8967 23.6534C94.1126 22.1364 93.7205 20.3423 93.7205 18.2713C93.7205 16.2514 94.1126 14.4787 94.8967 12.9531C95.6808 11.4276 96.7844 10.2386 98.2077 9.38636C99.6396 8.53409 101.319 8.10795 103.245 8.10795C104.54 8.10795 105.746 8.31676 106.863 8.73438C107.988 9.14347 108.968 9.76136 109.803 10.5881C110.647 11.4148 111.303 12.4545 111.772 13.7074C112.24 14.9517 112.475 16.4091 112.475 18.0795V19.5753H95.8938V16.2003H107.348C107.348 15.4162 107.178 14.7216 106.837 14.1165C106.496 13.5114 106.023 13.0384 105.418 12.6974C104.821 12.348 104.127 12.1733 103.334 12.1733C102.507 12.1733 101.775 12.3651 101.135 12.7486C100.505 13.1236 100.01 13.6307 99.6523 14.2699C99.2944 14.9006 99.1112 15.6037 99.1026 16.3793V19.5881C99.1026 20.5597 99.2816 21.3991 99.6396 22.1065C100.006 22.8139 100.522 23.3594 101.186 23.7429C101.851 24.1264 102.64 24.3182 103.551 24.3182C104.157 24.3182 104.711 24.233 105.213 24.0625C105.716 23.892 106.147 23.6364 106.505 23.2955C106.863 22.9545 107.135 22.5369 107.323 22.0426L112.36 22.375C112.104 23.5852 111.58 24.642 110.787 25.5455C110.003 26.4403 108.989 27.1392 107.745 27.642C106.509 28.1364 105.081 28.3835 103.462 28.3835ZM13.7656 54.6392V43.3636H19.2116V63H13.983V59.4332H13.7784C13.3352 60.5838 12.598 61.5085 11.5668 62.2074C10.544 62.9062 9.29545 63.2557 7.82102 63.2557C6.50852 63.2557 5.35369 62.9574 4.35653 62.3608C3.35938 61.7642 2.57955 60.9162 2.01705 59.8168C1.46307 58.7173 1.18182 57.4006 1.1733 55.8665V43.3636H6.61932V54.8949C6.62784 56.054 6.93892 56.9702 7.55256 57.6435C8.16619 58.3168 8.98864 58.6534 10.0199 58.6534C10.6761 58.6534 11.2898 58.5043 11.8608 58.206C12.4318 57.8991 12.892 57.4474 13.2415 56.8509C13.5994 56.2543 13.7741 55.517 13.7656 54.6392ZM39.9059 48.9631L34.9201 49.2699C34.8349 48.8437 34.6516 48.4602 34.3704 48.1193C34.0891 47.7699 33.7184 47.4929 33.2582 47.2884C32.8065 47.0753 32.2653 46.9688 31.6346 46.9688C30.7908 46.9688 30.0792 47.1477 29.4996 47.5057C28.9201 47.8551 28.6303 48.3239 28.6303 48.9119C28.6303 49.3807 28.8178 49.777 29.1928 50.1009C29.5678 50.4247 30.2113 50.6847 31.1232 50.8807L34.6772 51.5966C36.5863 51.9886 38.0096 52.6193 38.9471 53.4886C39.8846 54.358 40.3533 55.5 40.3533 56.9148C40.3533 58.2017 39.9741 59.331 39.2156 60.3026C38.4656 61.2741 37.4343 62.0327 36.1218 62.5781C34.8178 63.1151 33.3136 63.3835 31.609 63.3835C29.0096 63.3835 26.9386 62.8423 25.396 61.7599C23.8619 60.669 22.9627 59.1861 22.6985 57.3111L28.055 57.0298C28.217 57.8224 28.609 58.4276 29.2312 58.8452C29.8533 59.2543 30.6502 59.4588 31.6218 59.4588C32.5763 59.4588 33.3434 59.2756 33.9229 58.9091C34.511 58.5341 34.8093 58.0526 34.8178 57.4645C34.8093 56.9702 34.6005 56.5653 34.1914 56.25C33.7823 55.9261 33.1516 55.679 32.2994 55.5085L28.8988 54.831C26.9812 54.4474 25.5536 53.7827 24.6161 52.8366C23.6871 51.8906 23.2227 50.6847 23.2227 49.2188C23.2227 47.9574 23.5636 46.8707 24.2454 45.9588C24.9357 45.0469 25.9031 44.3438 27.1474 43.8494C28.4002 43.3551 29.8661 43.108 31.5451 43.108C34.0252 43.108 35.9769 43.6321 37.4002 44.6804C38.832 45.7287 39.6673 47.1562 39.9059 48.9631ZM52.7315 63.3835C50.7116 63.3835 48.973 62.9744 47.5156 62.1562C46.0668 61.3295 44.9503 60.1619 44.1662 58.6534C43.3821 57.1364 42.9901 55.3423 42.9901 53.2713C42.9901 51.2514 43.3821 49.4787 44.1662 47.9531C44.9503 46.4276 46.054 45.2386 47.4773 44.3864C48.9091 43.5341 50.5881 43.108 52.5142 43.108C53.8097 43.108 55.0156 43.3168 56.1321 43.7344C57.2571 44.1435 58.2372 44.7614 59.0724 45.5881C59.9162 46.4148 60.5724 47.4545 61.0412 48.7074C61.5099 49.9517 61.7443 51.4091 61.7443 53.0795V54.5753H45.1634V51.2003H56.6179C56.6179 50.4162 56.4474 49.7216 56.1065 49.1165C55.7656 48.5114 55.2926 48.0384 54.6875 47.6974C54.0909 47.348 53.3963 47.1733 52.6037 47.1733C51.777 47.1733 51.044 47.3651 50.4048 47.7486C49.7741 48.1236 49.2798 48.6307 48.9219 49.2699C48.5639 49.9006 48.3807 50.6037 48.3722 51.3793V54.5881C48.3722 55.5597 48.5511 56.3991 48.9091 57.1065C49.2756 57.8139 49.7912 58.3594 50.456 58.7429C51.1207 59.1264 51.9091 59.3182 52.821 59.3182C53.4261 59.3182 53.9801 59.233 54.483 59.0625C54.9858 58.892 55.4162 58.6364 55.7741 58.2955C56.1321 57.9545 56.4048 57.5369 56.5923 57.0426L61.6293 57.375C61.3736 58.5852 60.8494 59.642 60.0568 60.5455C59.2727 61.4403 58.2585 62.1392 57.0142 62.642C55.7784 63.1364 54.3509 63.3835 52.7315 63.3835ZM17.5114 83.9631L12.5256 84.2699C12.4403 83.8437 12.2571 83.4602 11.9759 83.1193C11.6946 82.7699 11.3239 82.4929 10.8636 82.2884C10.4119 82.0753 9.87074 81.9688 9.24006 81.9688C8.39631 81.9688 7.68466 82.1477 7.10511 82.5057C6.52557 82.8551 6.2358 83.3239 6.2358 83.9119C6.2358 84.3807 6.4233 84.777 6.7983 85.1009C7.1733 85.4247 7.81676 85.6847 8.72869 85.8807L12.2827 86.5966C14.1918 86.9886 15.6151 87.6193 16.5526 88.4886C17.4901 89.358 17.9588 90.5 17.9588 91.9148C17.9588 93.2017 17.5795 94.331 16.821 95.3026C16.071 96.2741 15.0398 97.0327 13.7273 97.5781C12.4233 98.1151 10.919 98.3835 9.21449 98.3835C6.61506 98.3835 4.54403 97.8423 3.00142 96.7599C1.46733 95.669 0.568182 94.1861 0.303977 92.3111L5.66051 92.0298C5.82244 92.8224 6.21449 93.4276 6.83665 93.8452C7.45881 94.2543 8.25568 94.4588 9.22727 94.4588C10.1818 94.4588 10.9489 94.2756 11.5284 93.9091C12.1165 93.5341 12.4148 93.0526 12.4233 92.4645C12.4148 91.9702 12.206 91.5653 11.7969 91.25C11.3878 90.9261 10.7571 90.679 9.90483 90.5085L6.50426 89.831C4.58665 89.4474 3.15909 88.7827 2.22159 87.8366C1.29261 86.8906 0.828125 85.6847 0.828125 84.2188C0.828125 82.9574 1.16903 81.8707 1.85085 80.9588C2.54119 80.0469 3.50852 79.3438 4.75284 78.8494C6.00568 78.3551 7.47159 78.108 9.15057 78.108C11.6307 78.108 13.5824 78.6321 15.0057 79.6804C16.4375 80.7287 17.2727 82.1562 17.5114 83.9631ZM33.9805 89.6392V78.3636H39.4265V98H34.1978V94.4332H33.9933C33.5501 95.5838 32.8129 96.5085 31.7816 97.2074C30.7589 97.9062 29.5103 98.2557 28.0359 98.2557C26.7234 98.2557 25.5685 97.9574 24.5714 97.3608C23.5742 96.7642 22.7944 95.9162 22.2319 94.8168C21.6779 93.7173 21.3967 92.4006 21.3881 90.8665V78.3636H26.8342V89.8949C26.8427 91.054 27.1538 91.9702 27.7674 92.6435C28.381 93.3168 29.2035 93.6534 30.2347 93.6534C30.891 93.6534 31.5046 93.5043 32.0756 93.206C32.6467 92.8991 33.1069 92.4474 33.4563 91.8509C33.8143 91.2543 33.989 90.517 33.9805 89.6392ZM52.6548 98.3835C50.6435 98.3835 48.9134 97.9574 47.4645 97.1051C46.0241 96.2443 44.9162 95.0511 44.1406 93.5256C43.3736 92 42.9901 90.2443 42.9901 88.2585C42.9901 86.2472 43.3778 84.483 44.1534 82.9659C44.9375 81.4403 46.0497 80.2514 47.4901 79.3991C48.9304 78.5384 50.6435 78.108 52.6293 78.108C54.3423 78.108 55.8423 78.419 57.1293 79.0412C58.4162 79.6634 59.4347 80.5369 60.1847 81.6619C60.9347 82.7869 61.348 84.108 61.4247 85.625H56.2855C56.1406 84.6449 55.7571 83.8565 55.1349 83.2599C54.5213 82.6548 53.7159 82.3523 52.7188 82.3523C51.875 82.3523 51.1378 82.5824 50.5071 83.0426C49.8849 83.4943 49.3991 84.1548 49.0497 85.0241C48.7003 85.8935 48.5256 86.946 48.5256 88.1818C48.5256 89.4347 48.696 90.5 49.0369 91.3778C49.3864 92.2557 49.8764 92.9247 50.5071 93.3849C51.1378 93.8452 51.875 94.0753 52.7188 94.0753C53.3409 94.0753 53.8991 93.9474 54.3935 93.6918C54.8963 93.4361 55.3097 93.0653 55.6335 92.5795C55.9659 92.0852 56.1832 91.4929 56.2855 90.8026H61.4247C61.3395 92.3026 60.9304 93.6236 60.1974 94.7656C59.473 95.8991 58.4716 96.7855 57.1932 97.4247C55.9148 98.0639 54.402 98.3835 52.6548 98.3835ZM69.8462 92.3494L69.859 85.8168H70.6516L76.9414 78.3636H83.1928L74.7425 88.233H73.4514L69.8462 92.3494ZM64.9116 98V71.8182H70.3576V98H64.9116ZM77.1843 98L71.4059 89.4474L75.0366 85.5994L83.5636 98H77.1843ZM102.203 83.9631L97.217 84.2699C97.1317 83.8437 96.9485 83.4602 96.6673 83.1193C96.386 82.7699 96.0153 82.4929 95.555 82.2884C95.1033 82.0753 94.5621 81.9688 93.9315 81.9688C93.0877 81.9688 92.3761 82.1477 91.7965 82.5057C91.217 82.8551 90.9272 83.3239 90.9272 83.9119C90.9272 84.3807 91.1147 84.777 91.4897 85.1009C91.8647 85.4247 92.5082 85.6847 93.4201 85.8807L96.9741 86.5966C98.8832 86.9886 100.306 87.6193 101.244 88.4886C102.181 89.358 102.65 90.5 102.65 91.9148C102.65 93.2017 102.271 94.331 101.512 95.3026C100.762 96.2741 99.7312 97.0327 98.4187 97.5781C97.1147 98.1151 95.6104 98.3835 93.9059 98.3835C91.3065 98.3835 89.2354 97.8423 87.6928 96.7599C86.1587 95.669 85.2596 94.1861 84.9954 92.3111L90.3519 92.0298C90.5138 92.8224 90.9059 93.4276 91.5281 93.8452C92.1502 94.2543 92.9471 94.4588 93.9187 94.4588C94.8732 94.4588 95.6403 94.2756 96.2198 93.9091C96.8079 93.5341 97.1062 93.0526 97.1147 92.4645C97.1062 91.9702 96.8974 91.5653 96.4883 91.25C96.0792 90.9261 95.4485 90.679 94.5962 90.5085L91.1957 89.831C89.2781 89.4474 87.8505 88.7827 86.913 87.8366C85.984 86.8906 85.5195 85.6847 85.5195 84.2188C85.5195 82.9574 85.8604 81.8707 86.5423 80.9588C87.2326 80.0469 88.1999 79.3438 89.4442 78.8494C90.6971 78.3551 92.163 78.108 93.842 78.108C96.3221 78.108 98.2738 78.6321 99.6971 79.6804C101.129 80.7287 101.964 82.1562 102.203 83.9631Z" fill="white"/>
</svg>
