<svg width="80" height="88" viewBox="0 0 80 88" fill="none" xmlns="http://www.w3.org/2000/svg">
<path d="M61.6095 16.5858H68.7842C69.8312 16.5858 70.0036 18.696 70.1095 19.4144C72.8986 38.2409 73.8091 57.7534 76.4006 76.6517C77.1711 79.9005 78.8017 82.8889 79.9044 86.0371C80.0175 86.7949 79.7033 87.4774 79.0244 87.833L2.01063 88C1.08035 87.9838 0.230887 87.5474 0.0836227 86.5866C-0.131886 85.1876 2.92474 79.8071 3.28213 78.0381L4.83738 30.6047C4.91819 28.1694 4.92718 25.7593 5.04571 23.3402C5.1373 21.4599 4.26269 18.2596 6.98708 18.2506L16.0097 21.3234C16.2306 21.4563 16.685 21.1941 16.685 21.0469V15.027C16.685 7.33693 25.519 1.13747 32.8014 1.64032C33.8987 1.71575 37.4959 2.89207 37.7491 2.85256C38.1963 2.78072 39.4085 1.78938 39.9707 1.52539C47.3033 -1.93891 55.8501 0.652576 59.7741 7.72664C60.4278 8.90476 61.6095 12.1033 61.6095 13.3676V16.5858ZM58.2817 16.5858C59.282 6.50363 48.3486 -0.525537 39.7911 5.49972C37.7599 6.92926 34.9888 10.8407 34.9888 13.3694V16.5876H43.3075C43.3326 15.0719 42.9752 13.5705 42.4257 12.1733C41.8169 10.6234 39.6923 8.67129 40.7124 7.25073C42.3951 4.91067 44.5251 8.76647 45.1483 10.0775C46.1001 12.0781 46.5778 14.3769 46.6335 16.5858H58.2799H58.2817ZM20.0146 15.0288C19.8871 16.1674 20.108 17.4982 20.0146 18.6619L22.8216 16.5858H31.661V13.3676C31.661 12.4553 32.4243 10.0398 32.8086 9.11668C33.3671 7.77334 34.2363 6.606 34.9888 5.3794C28.4212 3.39851 20.7886 8.15048 20.0146 15.0288ZM31.661 19.9065H25.0054L25.0126 77.9304L23.7572 84.6686H75.7523C74.9549 82.104 73.4733 79.7388 73.0746 77.0647L66.8087 19.9047H61.6095V25.4055C61.6095 26.8063 58.2817 26.8063 58.2817 25.4055V19.9047H34.9888V25.4055C34.9888 26.8063 31.661 26.8063 31.661 25.4055V19.9047V19.9065ZM20.4294 84.6704L21.6848 77.7238L21.6758 21.5677C20.5031 22.1783 17.9475 24.856 16.7873 24.9027L8.36993 22.1909L7.54381 51.9867C6.5381 60.3772 7.73059 69.8326 6.70872 78.1387C6.47705 80.0244 4.61109 82.6985 4.20701 84.6722H20.4294V84.6704Z" fill="white"/>
<path d="M41.3824 76.4166C43.0401 76.1221 49.9812 76.1455 51.7125 76.3861C53.8819 76.6896 53.8801 79.3673 51.7125 79.669C49.8322 79.9312 43.4405 79.9312 41.5602 79.669C39.4285 79.3727 39.4285 76.7651 41.3824 76.4166Z" fill="white"/>
<path d="M33.0616 76.416C34.721 76.1196 39.4119 75.9203 38.1584 78.8045C37.6555 79.9629 34.5611 79.8138 33.4279 79.6863C31.0448 79.4187 31.0897 76.768 33.0616 76.4142V76.416Z" fill="white"/>
</svg>
