<svg width="40" height="88" viewBox="0 0 40 88" fill="none" xmlns="http://www.w3.org/2000/svg">
<path d="M32.9519 7.03273H23.8137V15.6279H28.1218C29.2722 15.6279 28.5017 20.2344 28.8905 21.1126C34.2067 22.1111 38.2177 25.6472 38.9541 31.1265L38.9343 82.6705C38.2141 85.8169 36.0394 87.5338 32.8331 87.7834C24.0316 88.4677 14.3263 87.268 5.43114 87.7511C3.07098 87.2788 1.18249 86.0199 0.390373 83.6636C-0.365742 66.1483 0.237358 48.4677 0.084335 30.893C0.845851 25.8519 5.04409 21.6154 10.2361 21.3568C10.3837 20.4463 9.79322 15.6297 10.8914 15.6297H15.1994V7.03453H10.6303C9.58797 5.41822 9.59517 1.58757 10.6285 0H34.3868C35.1249 0 37.5642 1.38464 38.1781 1.94855C38.6354 2.36879 40 4.35864 40 4.81839V9.50568C40 9.55237 39.3933 10.1576 39.3465 10.1576H33.8629C32.4191 10.1576 33.1266 7.03273 32.9483 7.03273H32.9519ZM34.1257 2.08324H12.0634V4.9477H33.3408C34.7504 4.9477 35.3679 6.89445 35.0367 8.07435H37.9117C38.4554 5.34279 36.9827 2.55556 34.1239 2.08324H34.1257ZM21.7236 7.55354H17.286V15.6279H21.7236V7.55354ZM12.3262 17.7111V21.0964H26.6852V17.7111H12.3262ZM36.8675 33.3372C37.3698 28.5188 33.8089 23.8531 28.9139 23.4311C24.0226 23.009 15.2858 23.0611 10.3567 23.4293C5.31592 23.8046 1.66496 28.35 2.14384 33.3372H36.8675ZM36.8675 35.4205H2.14384V45.0573H17.4174C17.7792 45.0573 19.5759 45.878 19.9846 46.142C21.7722 47.3039 22.6003 49.3602 22.7786 51.4273C23.1458 55.6836 23.2575 65.755 22.7012 69.8604C22.4869 71.4498 21.5868 73.2654 20.2438 74.1813C19.972 74.3663 18.0961 75.2678 17.9377 75.2678H2.14206V82.4299C2.14206 84.1144 4.62282 85.5583 6.17826 85.6966C14.7368 86.4527 24.4042 85.1093 33.0816 85.6858C34.3436 85.8762 36.8657 83.793 36.8657 82.6903V64.8498H27.859C27.5781 64.8498 26.759 64.0776 26.7734 63.6771C26.759 63.2766 27.5781 62.5044 27.859 62.5044H36.8657V55.9925H27.3369C26.4962 55.9925 26.903 53.9092 27.5979 53.9092H36.8657V35.4169L36.8675 35.4205ZM20.6795 64.5912V50.9173C20.6795 49.6745 18.6992 47.1405 17.4156 47.1405H2.14206V73.1846H12.3244C12.427 69.1959 9.32514 67.066 5.64178 66.6996C4.23937 64.4134 6.85156 64.8013 8.29178 64.3434C10.1137 63.7651 11.6817 61.9818 12.2092 60.1787C12.4234 59.4442 12.1228 57.6483 13.2443 57.5405C14.6521 57.4076 14.5873 60.1123 15.0644 61.2042C15.9771 63.2946 18.4021 64.8013 20.6777 64.5894L20.6795 64.5912ZM16.501 66.1483C16.8251 65.6759 15.3794 64.9217 15.0608 64.5966C14.4883 64.0129 13.9572 63.4508 13.4982 62.7684L12.0742 64.4691L10.2379 65.6364L13.5036 69.0163C14.2255 67.8184 15.1112 66.626 16.5028 66.1465L16.501 66.1483ZM20.6795 66.9349C17.259 66.9708 14.5009 69.7921 14.4127 73.1846C19.0862 73.8724 21.1619 71.4641 20.6795 66.9349Z" fill="white"/>
</svg>
