<svg width="32" height="88" viewBox="0 0 32 88" fill="none" xmlns="http://www.w3.org/2000/svg">
<path d="M23.9319 12.8925V13.5337C25.1441 13.4816 26.4103 14.0581 26.8269 15.2506C27.2921 16.5868 27.337 20.651 26.9113 21.9908C26.4857 23.3306 25.0687 23.2659 25.5267 24.7063C25.8212 25.6258 27.1682 26.0371 27.8901 26.6334C29.7579 28.1743 30.884 30.3474 31.2144 32.7468L31.1193 82.0151C30.0471 86.9701 25.9954 87.4371 21.6797 87.798C17.8436 88.1177 7.42887 88.2596 4.21412 86.6289C2.35351 85.6842 0.976015 83.5632 0.785645 81.4781L0.796421 32.533C1.14124 30.2019 2.31939 28.1204 4.12073 26.6334C5.13364 25.7982 6.84877 25.4786 6.55065 23.767C5.4192 22.957 5.10131 22.4937 4.92531 21.0928C4.59486 18.4743 4.25183 13.2212 8.079 13.5337V12.8925C4.23028 12.9716 4.0884 6.208 5.93643 4.20013C8.07721 1.87617 13.4202 -0.129911 16.5505 0.00658163C19.2067 0.121522 24.2677 2.24434 26.0726 4.20013C27.9009 6.18286 27.7644 12.9698 23.9301 12.8925H23.9319ZM23.7199 10.7464C25.559 10.7607 24.6323 7.33047 24.679 6.02841C19.7132 1.09493 12.2582 1.15419 7.31752 6.00506C7.40013 7.19039 6.46624 11.0265 8.29631 10.6242C8.1257 9.29704 9.37029 8.21408 10.5969 8.00754C12.6228 7.66631 18.6625 7.75431 20.8374 7.94648C22.5382 8.09734 23.6768 8.95401 23.7217 10.7464H23.7199ZM21.7893 13.5355C21.6708 12.4471 22.2778 10.4752 20.8374 10.3046C17.7682 9.93819 13.9392 10.5793 10.7855 10.3441C10.1605 10.5578 10.1892 12.9033 10.4371 13.5355H21.7911H21.7893ZM24.7885 15.8972H7.22233V21.6927H24.7885V15.8972ZM23.2907 23.8371H8.72195C9.11347 26.9494 6.22379 27.3877 4.64694 29.092C3.58733 30.236 3.00724 31.8219 2.93001 33.3807L2.93899 81.2554C3.59631 85.2694 7.25646 85.3735 10.5466 85.6519C14.0182 85.9464 17.9962 85.9464 21.4678 85.6519C24.3773 85.4058 28.138 85.2819 28.9803 81.8032L29.0737 32.9623C28.9569 31.7823 28.3212 30.227 27.5758 29.3111C26.0924 27.4918 24.0199 27.605 23.3428 24.9649C23.2494 24.5985 23.2997 24.207 23.2925 23.8353L23.2907 23.8371Z" fill="white"/>
<path d="M15.5124 45.1268C16.8629 44.7048 17.619 46.4774 18.2386 47.4651C19.9376 50.1752 22.3693 54.191 19.7328 57.086C16.3906 60.757 10.3508 57.9176 11.1302 52.9733C11.3116 51.8203 14.6144 45.407 15.5106 45.1268H15.5124ZM15.7943 48.0937C14.9628 50.3656 11.5325 53.8156 14.2875 55.9312C16.1643 57.3734 18.8636 56.0354 18.8025 53.7887C18.7792 52.9679 16.2595 47.7363 15.7943 48.0919V48.0937Z" fill="white"/>
</svg>
