<svg width="134" height="88" viewBox="0 0 134 88" fill="none" xmlns="http://www.w3.org/2000/svg">
<path d="M21.3062 43.9444C18.1386 46.5933 14.3182 48.4857 10.6071 45.5228C9.05604 44.2858 1.74307 34.6735 0.847385 32.8166C-0.580802 29.8537 0.02818 26.1645 2.67975 24.1273C9.36464 19.6161 15.6235 13.8105 22.3275 9.414C26.0769 6.95632 33.5209 2.51884 37.5133 0.809381C38.2096 0.511729 39.2255 0.178577 39.9682 0.093924C46.7378 -0.684342 47.7372 6.07973 55.7766 5.06662C61.29 4.37301 62.1256 -1.337 69.0535 0.290531C69.9165 0.492607 70.6565 0.959576 71.4375 1.34188C81.4375 6.24359 90.46 12.7455 99.2011 19.567L129.518 19.6461C131.593 20.023 133.032 21.3856 133.778 23.3163L133.904 83.4558C133.685 85.6923 131.656 87.3744 129.548 87.8223C124.073 87.3771 117.729 88.3957 112.361 87.8168C109.624 87.5219 107.953 85.2936 107.727 82.672C106.937 73.5677 108.349 63.3574 107.718 54.1329C107.21 50.8423 102.544 50.6375 101.449 53.6441L101.388 82.3935C101.137 85.0615 99.8893 86.6671 97.437 87.6912L26.724 87.8168C24.5176 87.8659 21.3062 84.4061 21.3062 82.3962V43.939V43.9444ZM65.7084 4.56144C64.4058 4.52048 63.6903 5.89132 62.7783 6.52212C57.811 9.96015 51.6941 10.4872 46.4347 7.31678C45.0229 6.46479 43.9579 5.04205 42.4478 4.56144V9.71438C42.4478 11.899 44.8809 15.591 46.5493 16.9782C53.8678 23.0596 65.7056 17.7292 65.7056 8.3927V4.56144H65.7084ZM38.2205 5.35337L25.5225 12.4015V81.3558C25.2822 82.0767 26.3827 83.5896 26.9862 83.5896H74.9602V23.9881C74.9602 23.8461 75.4107 22.6964 75.5309 22.4452C76.7597 19.8864 79.7936 19.3758 82.3605 19.627V12.3577L69.6734 5.35337V10.7712C69.6734 11.2709 68.6821 13.8706 68.3954 14.5178C62.9066 27.0001 45.0365 26.8635 39.5777 14.4359C39.1736 13.5156 38.2178 10.8558 38.2178 9.97927V5.35337H38.2205ZM21.3062 38.5239V15.3971L5.01179 27.6473C3.69557 29.3731 4.24993 30.2879 5.233 31.8663C6.59292 34.0482 11.126 40.3125 12.8491 41.9592C15.6563 44.6462 19.0315 40.0831 21.3062 38.5239ZM92.1421 19.627L86.5905 15.3971V19.627H92.1421ZM129.939 30.1978V25.0449C129.939 24.84 129.485 24.0672 129.278 23.8543H79.851C79.8045 23.8543 79.1901 24.4687 79.1901 24.5151V30.1978H129.939ZM83.6822 34.4277H79.1901V44.2066C80.9733 43.7888 82.6336 41.8336 83.2152 40.1705C83.3108 39.8975 83.685 38.4146 83.685 38.2617V34.4305L83.6822 34.4277ZM102.448 34.4277H87.9122C88.5184 41.0416 85.7713 46.921 79.1792 48.8762L79.5615 83.352L95.9897 83.606C97.0465 83.6142 97.1039 82.7103 97.1776 81.8856C97.9832 72.8031 96.5304 62.5573 97.1885 53.3519C97.7893 50.7031 99.8292 48.3737 102.451 47.6473V34.4305L102.448 34.4277ZM121.216 34.4277H106.681V47.5108C109.365 48.614 111.582 50.9051 111.937 53.8844C112.978 62.5955 111.252 73.2182 111.954 82.1477C111.995 82.6557 112.109 83.1035 112.232 83.5896H129.28L129.821 82.8086L129.952 48.8735C126.662 47.7757 123.824 45.9679 122.309 42.7183C122.033 42.1285 121.219 39.8183 121.219 39.3158V34.425L121.216 34.4277ZM129.939 34.4277H125.446V39.0536C125.446 40.6348 128.139 44.1329 129.939 44.2066V34.4277Z" fill="white"/>
<path d="M48.456 32.6557C48.7482 32.8905 49.0213 33.6251 49.0704 34.0211C49.2944 35.8206 49.2998 45.0806 48.882 46.5416C48.598 47.5274 47.6368 48.4832 46.6838 48.8354C44.9251 49.4853 37.8989 49.4553 36.1102 48.8327C34.8049 48.3794 33.8901 47.3199 33.7236 45.9326C33.4259 43.4586 33.4368 36.517 33.7236 34.0265C33.8055 33.322 34.0294 32.6584 34.7203 32.3799C36.1348 31.8119 44.3926 31.8747 46.2823 32.0522C46.8039 32.1013 48.0846 32.3553 48.4587 32.6557H48.456ZM44.8296 36.2794H38.09L37.6941 36.6754V44.6055L38.09 45.0014H44.8296V36.2794Z" fill="white"/>
</svg>
