<svg width="78" height="88" viewBox="0 0 78 88" fill="none" xmlns="http://www.w3.org/2000/svg">
<path d="M26.4999 12.0069H49.6775C51.1898 -1.13937 69.473 -4.55882 75.7835 7.23867C82.0794 19.0092 69.9269 31.6526 57.6473 26.3959C57.188 26.1983 56.5163 25.4961 56.1042 25.7565L34.693 52.3669L34.6403 73.963C35.9728 79.7549 39.3713 83.6179 45.4458 84.5698C46.0231 84.6596 46.6131 84.5195 47.1922 84.6326C49.1493 85.0152 49.0167 87.8312 47.0633 88L18.0364 87.8527C16.5295 87.0248 16.918 84.8553 18.6354 84.6039C19.2073 84.5195 19.8227 84.656 20.4109 84.5698C26.4091 83.6826 29.9038 79.71 31.033 73.9612L30.9877 52.3597L0.784284 14.7816C0.0109096 13.9393 0.95312 12.0069 1.96432 12.0069H16.5404C15.7997 10.3169 16.4497 8.65207 17.2303 7.12194C16.6312 5.82348 14.0206 3.09725 13.9244 1.84369C13.7882 0.0836704 15.8179 -0.568258 17.0016 0.559588C17.7586 1.28155 19.6212 4.86444 20.1622 5.12665C20.7032 5.38885 22.1592 5.13025 23.027 5.33678C25.8046 5.99768 27.3386 9.41534 26.4999 12.0087V12.0069ZM67.0603 3.96288C63.9105 3.07569 60.5484 3.20141 57.8288 5.12306L63.1644 10.7533L67.0585 3.96288H67.0603ZM73.9408 14.1512C74.0824 11.3513 72.9224 8.45092 70.9562 6.46282C70.6803 6.18445 70.437 5.80911 69.9795 5.95098L66.336 12.7217L73.9408 14.1512ZM59.4555 12.0069L55.3635 7.54398C54.6482 7.39132 53.1123 11.2723 53.1178 12.0069H59.4555ZM23.2303 10.3277C23.2303 9.38301 22.4551 8.61794 21.4984 8.61794C20.5416 8.61794 19.7665 9.38301 19.7665 10.3277C19.7665 11.2723 20.5416 12.0374 21.4984 12.0374C22.4551 12.0374 23.2303 11.2723 23.2303 10.3277ZM23.0578 15.5826H6.03815L32.7668 48.8271L59.637 15.5826H27.2243L29.5172 18.9499L49.6303 19.1152C50.785 19.8641 51.0137 20.6435 50.3021 21.8324L34.1756 41.8445C32.9756 42.9077 32.0352 42.4084 31.1147 41.3309L15.1008 21.2074C14.7123 20.525 15.6127 18.9805 16.2681 18.9805H25.2309L23.0578 15.5844V15.5826ZM73.2165 17.5527L65.4301 16.1214L66.336 23.8079C69.3932 22.7843 72.0618 20.586 73.2146 17.5527H73.2165ZM62.8939 24.1635L62.0806 18.2657L58.368 22.9118C59.8476 23.526 61.2709 24.0522 62.8939 24.1653V24.1635ZM31.0258 27.5615L27.4948 22.3766H20.5235C20.5816 22.795 20.9955 23.1919 21.2551 23.5314C22.3099 24.9089 23.4645 26.245 24.5973 27.5615H31.0258ZM45.3314 22.3766H31.7501L35.1922 27.4717L41.0815 27.5758L41.3102 27.5219L45.3314 22.3766ZM38.2694 31.1372H27.404L33.0137 37.9312L38.2675 31.1372H38.2694ZM36.8206 84.5931C35.43 83.0342 33.709 81.6244 33.0155 79.5879C31.7592 81.3802 30.5084 83.1258 28.8527 84.5931H36.8206Z" fill="white"/>
</svg>
