<svg width="70" height="88" viewBox="0 0 70 88" fill="none" xmlns="http://www.w3.org/2000/svg">
<path d="M14.5855 0.0556746L54.9173 0C56.5911 0.143676 57.3383 0.646544 57.4891 2.37964C57.8447 6.44209 57.1263 10.9428 57.5807 15.0483L68.6276 26.0934L69.0892 26.9645L68.9563 86.8003C68.448 87.7593 67.3507 87.9623 66.3468 88H3.48473C2.21499 87.8904 0.927296 87.4953 0.911133 86.0011L0.930886 26.9645L1.39244 26.0934L12.4394 15.0483L12.5507 1.82828C12.8165 0.664503 13.4433 0.222698 14.5873 0.0574706L14.5855 0.0556746ZM16.5359 4.00678V13.7193H53.4823V4.00678H16.5359ZM50.6268 17.7189H15.2985L7.58491 25.5277H42.9131L50.6268 17.7189ZM65.2907 83.995V28.2881L55.483 18.484L45.8657 28.0977V83.995H65.2907ZM41.8661 29.3351H4.72934V83.9932H41.8661V29.3351Z" fill="white"/>
<path d="M12.7951 44.2583C13.3716 43.6836 14.4779 43.1394 15.2969 43.0478C20.383 43.3406 25.8876 42.6617 30.9217 43.0407C33.1972 43.2113 34.6088 44.5349 35.0093 46.7619C34.5836 53.089 35.5732 60.1471 35.0165 66.3863C34.8315 68.466 33.348 69.9979 31.2952 70.2835C26.1965 69.9387 20.5069 70.7415 15.4801 70.2907C13.2603 70.0913 11.8343 68.5432 11.5864 66.3773C11.9312 60.1741 11.1195 53.4698 11.5757 47.3258C11.6601 46.1908 11.9725 45.0791 12.7951 44.2601V44.2583ZM31.2108 46.8571H15.5842V66.4725H31.2108V46.8571Z" fill="white"/>
</svg>
