<svg width="84" height="88" viewBox="0 0 84 88" fill="none" xmlns="http://www.w3.org/2000/svg">
<path d="M31.6869 9.91704V36.5343L32.7824 34.3469C34.2047 32.4324 36.0132 31.7374 38.3425 31.5686C49.6676 32.0409 61.5081 30.9364 72.7738 31.5578C76.8829 31.7841 79.4277 33.5262 80.0383 37.7789C84.2066 38.8169 83.3571 43.7503 82.7088 47.0099C81.0314 55.4471 75.2504 61.9573 66.287 62.3506C63.8822 67.3558 64.5359 73.453 66.3139 78.5641C68.1583 78.5139 70.4104 78.7958 70.7103 80.9994C70.8594 82.0985 70.8666 85.9615 70.344 86.8128C70.0207 87.3408 69.3544 87.7125 68.7851 87.9155L20.0583 87.9999C18.9071 88.0124 17.6805 87.0876 17.5045 85.94C17.3662 85.0384 17.3662 81.7178 17.5045 80.8162C17.826 78.7365 20.4085 78.4474 22.1075 78.5875C22.1146 73.8534 20.7246 69.3906 18.0648 65.506C13.7529 59.2078 6.01605 54.8922 5.45034 46.5358C4.99417 34.5049 5.37491 22.413 5.25099 10.3588L5.08037 9.99786C-0.605503 9.42317 -0.754552 0.671673 5.00315 0L31.906 0.0305275C37.4931 0.734527 37.4571 9.57402 31.6905 9.91704H31.6869ZM5.02291 2.85909C2.79238 3.60081 3.1749 7.18726 5.69098 7.2555H31.0655C33.7342 7.18546 34.106 3.13746 31.4247 2.8142L5.02291 2.85909ZM28.8475 10.093H8.08675L8.07956 44.4363C8.58601 53.1501 13.6199 55.4687 18.5515 61.4688C22.639 66.4417 25.0204 72.0198 24.9432 78.5875H63.2716C61.6912 73.3703 61.1794 67.6378 63.0938 62.4404H37.6313C34.4202 62.4404 31.0242 60.3625 29.6485 57.4693C29.4905 57.1371 28.8475 55.483 28.8475 55.2531V10.0948V10.093ZM77.111 37.7753C77.1415 36.4966 76.107 35.1191 74.9038 34.7474L37.4517 34.5804C35.8282 34.7564 34.5388 36.132 34.5244 37.7753H77.111ZM80.3059 40.6146H31.6869V44.519H80.3059V40.6146ZM79.7743 47.3565H31.6869V54.8976C31.6869 56.5929 34.6268 59.346 36.4047 59.4071L67.4202 59.3999C74.0274 58.7031 78.2801 53.5183 79.7761 47.3565H79.7743ZM67.8853 81.6028H20.3313V85.1516H67.8853V81.6028Z" fill="white"/>
<path d="M21.9276 20.208C23.4074 23.0347 21.3744 26.6607 18.2441 27.0827C12.5223 27.8532 10.308 20.2511 15.2054 17.8337C16.9008 16.9969 23.3338 16.9663 25.3685 17.2124C27.9654 17.5267 27.1932 20.208 25.5661 20.208H21.9294H21.9276ZM19.5623 22.2284C19.5623 21.0664 18.6195 20.1235 17.4575 20.1235C16.2956 20.1235 15.3527 21.0664 15.3527 22.2284C15.3527 23.3903 16.2956 24.3332 17.4575 24.3332C18.6195 24.3332 19.5623 23.3903 19.5623 22.2284Z" fill="white"/>
</svg>
