<svg width="58" height="88" viewBox="0 0 58 88" fill="none" xmlns="http://www.w3.org/2000/svg">
<path d="M19.6494 87.5228C18.9382 87.3234 19.0837 85.6478 19.1052 85.0498C19.8003 66.7726 21.1346 48.483 22.1224 30.2202C22.3181 26.6086 22.1888 22.6342 22.5444 19.0729C22.6019 18.5036 22.7079 17.7188 23.1928 17.365L31.5043 12.2879C31.8275 11.7725 31.3211 4.49359 31.5528 3.01555C31.7845 1.5375 33.1817 0.33064 34.6651 0.129497C35.9941 -0.0518915 40.5845 -0.0572697 41.8362 0.206731C46.3404 1.15498 44.0201 9.0301 44.6558 12.2807L52.8273 17.2842C53.4612 17.7888 53.56 19.1268 53.6175 19.9224C53.9785 24.9043 53.9731 29.9472 54.2425 34.9363C55.1314 51.3295 56.3724 67.8071 56.8142 84.2129C56.8429 85.3102 57.5236 86.5889 56.5017 87.5246H19.6512L19.6494 87.5228ZM42.4684 11.6791V3.64412C42.4684 3.54894 42.0661 2.74796 41.953 2.65996C40.7407 2.48396 34.895 2.16608 34.2036 2.66355C34.1066 2.73359 33.6827 3.37654 33.6827 3.42862V11.6773H42.4666L42.4684 11.6791ZM27.6844 17.25H48.4668L42.9928 13.8324C39.6147 13.8845 36.1916 13.6744 32.8369 13.942L27.6826 17.2518L27.6844 17.25ZM51.2523 19.3926H25.0066L21.686 79.8111H54.4669L51.254 19.3926H51.2523ZM54.6807 81.9536H21.2585V85.382H54.6807V81.9536Z" fill="white"/>
<path d="M9.6891 25.6045L1.88402 25.1609C1.52124 24.9112 0.930381 22.9609 0.937565 22.4957C0.946545 21.8689 1.48892 21.3158 1.5428 20.7662C1.61284 20.0676 1.1441 19.4301 1.12973 18.832C1.11357 18.1657 1.72059 17.5964 1.72778 16.9337C1.73316 16.3447 1.29136 15.7412 1.34165 15.0265C1.38475 14.4087 1.94688 13.7711 1.95406 13.2916C1.96125 12.8552 1.55716 12.3416 1.53561 11.7812C1.50149 10.912 2.09055 10.3445 2.13366 9.82548C2.16778 9.41421 1.75831 8.77845 1.74394 8.14448C1.72239 7.26987 2.15521 6.88734 2.2037 6.21566C2.26835 5.33566 1.7601 4.87052 1.90377 4.02105C2.01332 3.37631 2.74247 1.63965 3.41235 1.43851L11.0773 1.81745C12.629 0.635729 14.1268 -0.328682 16.0108 0.964383C17.8103 2.19998 17.4511 4.49517 17.4116 6.43836C17.2841 12.478 16.2514 19.0583 16.3753 25.0693C16.4974 30.9743 19.4464 34.4548 19.3332 41.141C19.1626 51.2215 18.3634 61.3146 17.8336 71.3502C17.5894 75.9783 17.751 81.1416 17.1889 85.7033C17.029 87.0035 16.255 87.8135 14.944 87.9571C13.2971 88.1367 10.6014 87.8153 10.5422 85.7086C11.1671 73.8106 11.7526 61.9989 12.2519 50.1278C12.4584 45.2088 13.3869 40.0814 11.9412 35.2432C11.4635 33.6412 10.6032 32.2206 10.2225 30.5343C9.86151 28.9341 9.71245 27.2352 9.6909 25.6027L9.6891 25.6045ZM15.0445 85.5955C15.0912 84.421 14.9799 83.2249 15.0338 82.0503C15.639 69.0838 16.8153 56.0454 17.1943 43.0752C17.3936 36.2309 15.4827 32.7325 14.1879 26.3534L15.269 3.84684C15.4343 2.73875 13.9239 1.99884 13.2343 2.90937C12.6416 3.69239 12.9667 6.21028 12.911 7.29681C12.5751 13.7837 11.415 22.3862 12.0723 28.6863C12.2932 30.8108 13.536 32.7558 14.1286 34.7709C15.4325 39.2104 14.7949 42.4664 14.6081 46.9149C14.0873 59.3535 13.3761 71.7561 12.902 84.2019C12.8858 84.6293 12.6398 85.0478 12.6865 85.4877L15.0463 85.5991L15.0445 85.5955ZM10.7595 3.96538L4.47374 3.74447L4.12892 4.69093C4.38574 5.55476 9.72143 5.09142 10.7577 5.46677V3.96538H10.7595ZM10.5457 7.6075L4.26002 7.38481C3.90802 7.47102 3.85594 8.52702 4.27439 8.67968L10.5457 9.10889V7.6075ZM10.332 11.2496L4.04631 11.027C3.69431 11.1132 3.64223 12.1692 4.06068 12.3218L10.332 12.751V11.2496ZM10.3302 14.8936L3.82721 14.6673C3.47341 14.7481 3.55423 15.9029 3.82003 15.9765L9.98364 16.1902L10.3302 14.8936ZM10.1147 18.5375L4.01578 18.0957C3.25251 18.1891 3.49138 19.026 3.47342 19.6079L10.1165 19.8216L10.1129 18.5375H10.1147ZM9.89922 22.1796L3.2579 21.9641L3.45905 23.1566L9.90102 23.4655L9.89742 22.1814L9.89922 22.1796Z" fill="white"/>
<path d="M37.1718 57.1631C35.6597 58.4149 35.7584 65.1227 35.8177 67.0712C35.8554 68.3194 36.845 71.3042 35.0329 71.8376C31.9924 72.7338 30.1085 67.883 29.5446 65.6327C28.9286 63.1795 28.7562 59.9684 28.9968 57.4469C29.1333 56.0083 30.2611 53.5138 30.2396 52.5171C30.218 51.506 29.1692 49.8627 28.819 48.7887C27.8869 45.926 27.0985 40.6029 29.6272 38.367C31.802 36.4436 33.7596 38.0653 36.141 38.2538C37.2509 38.3418 39.1114 38.3436 40.2159 38.2431C42.4914 38.0329 44.3717 36.4382 46.5178 38.376C49.3985 40.9747 48.0372 46.5384 46.9722 49.7136C46.7028 50.5182 45.9593 51.4988 45.9036 52.3051C45.8443 53.169 46.7226 55.1266 46.9093 56.1933C47.6457 60.3886 47.1985 66.6707 44.4848 70.1512C43.5438 71.3599 41.7407 72.9044 40.4243 71.2486C39.4383 70.0094 40.268 68.2745 40.3237 66.8468C40.4171 64.4887 40.5069 59.8085 39.2982 57.8061C38.8115 57.0015 38.0321 56.4519 37.1718 57.1631ZM42.2561 69.3126C44.9787 66.0943 45.4816 60.6903 44.7291 56.6603C44.4345 55.0834 43.6102 53.6898 43.7431 52.0537C43.8365 50.9061 44.8781 49.2664 45.2571 47.9967C45.7923 46.2044 46.8034 41.1614 44.9087 39.9833C43.8994 39.3547 40.4243 40.5329 38.9426 40.6119C36.4122 40.7466 34.8713 39.9654 32.6928 39.7624C29.1943 39.4356 30.0492 44.8754 30.5754 47.0305C31.1214 49.2629 32.7144 51.1989 32.3462 53.512C32.2348 54.2142 31.7625 55.0206 31.6045 55.7695C30.6921 60.1102 30.7927 65.859 33.8961 69.3108C33.4004 65.9739 32.955 57.2116 36.1841 55.2074C37.3173 54.5034 38.9857 54.5483 40.101 55.2882C43.1271 57.2996 42.5506 66.0799 42.2561 69.3108V69.3126Z" fill="white"/>
<path d="M33.8965 42.3191C33.8157 42.7106 33.2589 42.6046 32.9375 42.9638C32.7489 43.1757 32.6465 43.5331 32.6088 43.8151C32.1868 43.7001 32.2855 43.0231 31.8761 42.7304C31.6534 42.5705 31.3786 42.5328 31.1128 42.5292L32.4005 41.0332L33.8947 42.3209L33.8965 42.3191Z" fill="white"/>
</svg>
